<mxfile host="app.diagrams.net" modified="2023-09-15T12:54:00.109Z" agent="Mozilla/5.0 (Windows NT 10.0; Win64; x64) AppleWebKit/537.36 (KHTML, like Gecko) Chrome/117.0.0.0 Safari/537.36" etag="PaOi_3OQgNOjAdQpxbV_" version="21.7.4" type="device">
  <diagram name="Page-1" id="ZUbpaTjaIjkilXx0srQT">
    <mxGraphModel dx="1050" dy="534" grid="1" gridSize="10" guides="1" tooltips="1" connect="1" arrows="1" fold="1" page="1" pageScale="1" pageWidth="850" pageHeight="1100" math="0" shadow="0">
      <root>
        <mxCell id="0" />
        <mxCell id="1" parent="0" />
        <mxCell id="Ls5qd9ljUNc7a_WdP8r3-1" value="Actor" style="shape=umlActor;verticalLabelPosition=bottom;verticalAlign=top;html=1;outlineConnect=0;" vertex="1" parent="1">
          <mxGeometry x="60" y="180" width="30" height="60" as="geometry" />
        </mxCell>
        <mxCell id="Ls5qd9ljUNc7a_WdP8r3-2" value="" style="whiteSpace=wrap;html=1;aspect=fixed;" vertex="1" parent="1">
          <mxGeometry x="190" y="110" width="250" height="250" as="geometry" />
        </mxCell>
        <mxCell id="Ls5qd9ljUNc7a_WdP8r3-3" value="Registration" style="text;html=1;strokeColor=none;fillColor=none;align=center;verticalAlign=middle;whiteSpace=wrap;rounded=0;" vertex="1" parent="1">
          <mxGeometry x="280" y="130" width="60" height="30" as="geometry" />
        </mxCell>
      </root>
    </mxGraphModel>
  </diagram>
</mxfile>
